<svg height="512" viewBox="0 0 256 256" width="512" xmlns="http://www.w3.org/2000/svg">
  <path d="M189.398 102.055H66.735a2.5 2.5 0 110-5h122.663a2.5 2.5 0 110 5z" fill="#ed9abc"/>
  <path d="M176.807 90.545a2.5 2.5 0 01-2.5-2.5c0-12.545-4.92-24.305-13.854-33.114-8.771-8.649-20.343-13.389-32.646-13.389-.225 0-.447.001-.673.004-1.387.059-2.516-1.084-2.535-2.464a2.5 2.5 0 012.465-2.535c13.913-.172 27.007 5.069 36.899 14.824 9.894 9.756 15.343 22.781 15.343 36.675a2.498 2.498 0 01-2.499 2.499z" fill="#ebe7f2"/>
  <g fill="#846f75">
    <path d="M173.792 41.603c-12.526-12.353-29.097-19.006-46.725-18.772-16.64.232-32.355 6.627-44.255 18.005-11.905 11.385-18.981 26.8-19.926 43.406-.661 11.644 1.67 20.384 7.559 28.339 12.271 16.576 21.572 33.882 27.646 51.438l1.632 4.72c.025.074.054.146.086.217a12.528 12.528 0 0011.382 7.33h33.634c4.88 0 9.343-2.868 11.371-7.307.032-.071.061-.143.087-.216l1.565-4.496c6.1-17.519 15.532-34.933 28.037-51.758 5.073-6.827 7.336-14.373 7.336-24.464 0-17.594-6.9-34.087-19.429-46.442zm8.079 67.924c-12.808 17.232-22.479 35.097-28.746 53.096L151.602 167a7.52 7.52 0 01-6.777 4.286H111.19a7.518 7.518 0 01-6.784-4.3l-1.591-4.602c-6.239-18.037-15.777-35.794-28.351-52.778-5.215-7.045-7.185-14.546-6.586-25.081 1.812-31.875 27.289-56.248 59.26-56.695 16.248-.221 31.579 5.929 43.144 17.333 11.568 11.408 17.939 26.637 17.939 42.882 0 9.069-1.899 15.493-6.35 21.482zM151.251 178.274a2.5 2.5 0 00-2.5 2.5v4.355h-41.502v-4.355a2.5 2.5 0 10-5 0v22.474c0 4.437 1.72 8.616 4.844 11.768l4.193 4.231a9.263 9.263 0 004.05 2.373v2.773c0 4.844 3.94 8.784 8.784 8.784h9.014c4.844 0 8.784-3.94 8.784-8.784v-3.228a9.227 9.227 0 002.796-1.917l4.193-4.231a16.614 16.614 0 004.844-11.768v-22.474a2.5 2.5 0 00-2.5-2.501zm-2.5 11.855v6.197h-41.502v-6.197zm-15.617 38.047h-9.014a3.788 3.788 0 01-3.784-3.784v-2.415h16.582v2.415a3.788 3.788 0 01-3.784 3.784zm12.222-16.68l-4.193 4.231a4.254 4.254 0 01-2.999 1.25h-20.328a4.254 4.254 0 01-2.999-1.25l-4.193-4.231a11.65 11.65 0 01-3.395-8.248v-1.921h41.502v1.921c0 3.109-1.206 6.039-3.395 8.248z"/>
  </g>
  <g fill="#ebe7f2">
    <path d="M110.87 165.703a2.5 2.5 0 01-2.44-1.973c-3.802-17.614-9.621-34.97-17.297-51.587a2.5 2.5 0 014.539-2.097c7.829 16.95 13.766 34.657 17.645 52.629a2.499 2.499 0 01-2.447 3.028zM145.216 165.946a2.5 2.5 0 01-2.445-3.032c3.897-17.938 9.918-35.752 17.894-52.948a2.5 2.5 0 114.535 2.104c-7.82 16.863-13.723 34.327-17.542 51.906a2.504 2.504 0 01-2.442 1.97zM122.11 165.702a2.5 2.5 0 01-2.49-2.312c-1.339-17.729-3.389-35.19-6.09-51.898a2.5 2.5 0 114.935-.798c2.725 16.847 4.79 34.45 6.141 52.319a2.5 2.5 0 01-2.496 2.689zM134.137 165.945a2.5 2.5 0 01-2.496-2.689c1.356-17.832 3.451-35.542 6.227-52.638a2.5 2.5 0 114.935.801c-2.753 16.958-4.831 34.525-6.176 52.216a2.501 2.501 0 01-2.49 2.31z"/>
  </g>
</svg>
